<mxfile host="app.diagrams.net" modified="2021-05-19T07:31:58.826Z" agent="5.0 (Macintosh; Intel Mac OS X 10_15_7) AppleWebKit/537.36 (KHTML, like Gecko) Chrome/90.0.4430.93 Safari/537.36" etag="0TTMMLhEkhtbZUPZ30KS" version="14.6.11" type="github">
  <diagram id="2Lku7SXxJfx_jw641gc3" name="Page-1">
    <mxGraphModel dx="2706" dy="1591" grid="1" gridSize="13" guides="1" tooltips="1" connect="1" arrows="1" fold="1" page="1" pageScale="1" pageWidth="1169" pageHeight="1654" math="0" shadow="0">
      <root>
        <mxCell id="0" />
        <mxCell id="1" parent="0" />
        <mxCell id="aYpBokMkxp7m7ungWqd7-1" style="edgeStyle=orthogonalEdgeStyle;rounded=0;orthogonalLoop=1;jettySize=auto;html=1;entryX=0.006;entryY=0.594;entryDx=0;entryDy=0;entryPerimeter=0;endArrow=ERmany;endFill=0;startArrow=none;startFill=0;fillColor=#d5e8d4;strokeColor=#82b366;" edge="1" parent="1" source="aYpBokMkxp7m7ungWqd7-2" target="aYpBokMkxp7m7ungWqd7-7">
          <mxGeometry relative="1" as="geometry" />
        </mxCell>
        <mxCell id="aYpBokMkxp7m7ungWqd7-56" style="edgeStyle=orthogonalEdgeStyle;rounded=0;orthogonalLoop=1;jettySize=auto;html=1;startArrow=ERmany;startFill=0;endArrow=ERmany;endFill=0;fillColor=#d5e8d4;strokeColor=#82b366;" edge="1" parent="1" source="aYpBokMkxp7m7ungWqd7-2" target="aYpBokMkxp7m7ungWqd7-55">
          <mxGeometry relative="1" as="geometry">
            <Array as="points">
              <mxPoint x="1586" y="392" />
            </Array>
          </mxGeometry>
        </mxCell>
        <mxCell id="aYpBokMkxp7m7ungWqd7-2" value="&lt;div style=&quot;box-sizing: border-box ; width: 100% ; background: #e4e4e4 ; padding: 2px&quot;&gt;Contributor&amp;nbsp;&lt;/div&gt;&lt;table style=&quot;width: 100% ; font-size: 1em&quot; cellpadding=&quot;2&quot; cellspacing=&quot;0&quot;&gt;&lt;tbody&gt;&lt;tr&gt;&lt;td&gt;PK&lt;/td&gt;&lt;td&gt;Id_contributor&lt;br&gt;&lt;/td&gt;&lt;/tr&gt;&lt;tr&gt;&lt;td&gt;&lt;br&gt;&lt;br&gt;&lt;br&gt;&lt;br&gt;&lt;br&gt;&lt;br&gt;&lt;br&gt;&lt;br&gt;&lt;br&gt;&lt;br&gt;&lt;br&gt;&lt;/td&gt;&lt;td&gt;nome_azienda&lt;br&gt;iban&lt;br&gt;settore&lt;br&gt;partita_iva&lt;br&gt;descrizione_attività&lt;br&gt;stato&lt;br&gt;provincia&lt;br&gt;città&lt;br&gt;indirizzo&lt;br&gt;cap&lt;br&gt;telefono&lt;br&gt;fax&lt;br&gt;indirizzo_email&lt;br&gt;password&lt;br&gt;&lt;br&gt;&lt;br&gt;&lt;br&gt;&lt;br&gt;&lt;/td&gt;&lt;/tr&gt;&lt;tr&gt;&lt;td&gt;&amp;nbsp;&lt;/td&gt;&lt;td&gt;&lt;br&gt;&lt;/td&gt;&lt;/tr&gt;&lt;/tbody&gt;&lt;/table&gt;" style="verticalAlign=top;align=left;overflow=fill;html=1;fillColor=#d5e8d4;strokeColor=#82b366;" vertex="1" parent="1">
          <mxGeometry x="1466" y="532" width="210" height="260" as="geometry" />
        </mxCell>
        <mxCell id="aYpBokMkxp7m7ungWqd7-3" style="edgeStyle=orthogonalEdgeStyle;rounded=0;orthogonalLoop=1;jettySize=auto;html=1;startArrow=none;startFill=0;endArrow=ERzeroToMany;endFill=1;fillColor=#d5e8d4;strokeColor=#82b366;" edge="1" parent="1" source="aYpBokMkxp7m7ungWqd7-5" target="aYpBokMkxp7m7ungWqd7-6">
          <mxGeometry relative="1" as="geometry">
            <Array as="points">
              <mxPoint x="1186" y="1062" />
              <mxPoint x="936" y="1062" />
            </Array>
          </mxGeometry>
        </mxCell>
        <mxCell id="aYpBokMkxp7m7ungWqd7-4" style="edgeStyle=orthogonalEdgeStyle;rounded=0;orthogonalLoop=1;jettySize=auto;html=1;entryX=1;entryY=0.5;entryDx=0;entryDy=0;startArrow=none;startFill=0;endArrow=ERmany;endFill=0;fillColor=#d5e8d4;strokeColor=#82b366;" edge="1" parent="1" source="aYpBokMkxp7m7ungWqd7-5" target="aYpBokMkxp7m7ungWqd7-21">
          <mxGeometry relative="1" as="geometry" />
        </mxCell>
        <mxCell id="aYpBokMkxp7m7ungWqd7-35" style="edgeStyle=orthogonalEdgeStyle;rounded=0;orthogonalLoop=1;jettySize=auto;html=1;entryX=0;entryY=0.25;entryDx=0;entryDy=0;startArrow=none;startFill=0;fillColor=#d5e8d4;strokeColor=#82b366;endArrow=ERzeroToMany;endFill=1;exitX=1;exitY=0.5;exitDx=0;exitDy=0;" edge="1" parent="1" source="aYpBokMkxp7m7ungWqd7-5" target="aYpBokMkxp7m7ungWqd7-15">
          <mxGeometry relative="1" as="geometry">
            <Array as="points">
              <mxPoint x="1476" y="1222" />
              <mxPoint x="1476" y="1092" />
            </Array>
          </mxGeometry>
        </mxCell>
        <mxCell id="aYpBokMkxp7m7ungWqd7-58" style="edgeStyle=orthogonalEdgeStyle;rounded=0;orthogonalLoop=1;jettySize=auto;html=1;startArrow=ERzeroToMany;startFill=1;endArrow=none;endFill=0;fillColor=#d5e8d4;strokeColor=#82b366;" edge="1" parent="1" source="aYpBokMkxp7m7ungWqd7-5" target="aYpBokMkxp7m7ungWqd7-2">
          <mxGeometry relative="1" as="geometry">
            <mxPoint x="1436" y="812" as="targetPoint" />
            <Array as="points">
              <mxPoint x="1266" y="812" />
              <mxPoint x="1571" y="812" />
            </Array>
          </mxGeometry>
        </mxCell>
        <mxCell id="aYpBokMkxp7m7ungWqd7-5" value="&lt;div style=&quot;box-sizing: border-box ; width: 100% ; background: #e4e4e4 ; padding: 2px&quot;&gt;Guest&lt;/div&gt;&lt;table style=&quot;width: 100% ; font-size: 1em&quot; cellpadding=&quot;2&quot; cellspacing=&quot;0&quot;&gt;&lt;tbody&gt;&lt;tr&gt;&lt;td&gt;PK&lt;/td&gt;&lt;td&gt;Id_guest&lt;br&gt;&lt;/td&gt;&lt;/tr&gt;&lt;tr&gt;&lt;td&gt;&lt;br&gt;&lt;br&gt;&lt;br&gt;&lt;br&gt;&lt;/td&gt;&lt;td&gt;nome&lt;br&gt;cognome&lt;br&gt;immagine&lt;br&gt;data_nascita&lt;br&gt;indrizzo_email&lt;br&gt;password&lt;br&gt;&lt;br&gt;&lt;br&gt;&lt;br&gt;&lt;br&gt;&lt;/td&gt;&lt;/tr&gt;&lt;tr&gt;&lt;td&gt;&amp;nbsp;&lt;/td&gt;&lt;td&gt;&lt;br&gt;&lt;/td&gt;&lt;/tr&gt;&lt;/tbody&gt;&lt;/table&gt;" style="verticalAlign=top;align=left;overflow=fill;html=1;fillColor=#d5e8d4;strokeColor=#82b366;" vertex="1" parent="1">
          <mxGeometry x="1096" y="1172" width="180" height="160" as="geometry" />
        </mxCell>
        <mxCell id="aYpBokMkxp7m7ungWqd7-6" value="&lt;div style=&quot;box-sizing: border-box ; width: 100% ; background: #e4e4e4 ; padding: 2px&quot;&gt;Domanda&amp;nbsp;&lt;/div&gt;&lt;table style=&quot;width: 100% ; font-size: 1em&quot; cellpadding=&quot;2&quot; cellspacing=&quot;0&quot;&gt;&lt;tbody&gt;&lt;tr&gt;&lt;td&gt;PK&lt;/td&gt;&lt;td&gt;Id_domanda&lt;br&gt;&lt;/td&gt;&lt;/tr&gt;&lt;tr&gt;&lt;td&gt;&lt;br&gt;&lt;br&gt;&lt;br&gt;&lt;/td&gt;&lt;td&gt;domanda&lt;br&gt;data_domanda&lt;br&gt;&lt;/td&gt;&lt;/tr&gt;&lt;tr&gt;&lt;td&gt;&amp;nbsp;&lt;/td&gt;&lt;td&gt;&lt;br&gt;&lt;/td&gt;&lt;/tr&gt;&lt;/tbody&gt;&lt;/table&gt;" style="verticalAlign=top;align=left;overflow=fill;html=1;fillColor=#d5e8d4;strokeColor=#82b366;" vertex="1" parent="1">
          <mxGeometry x="846" y="547" width="180" height="125" as="geometry" />
        </mxCell>
        <mxCell id="aYpBokMkxp7m7ungWqd7-7" value="&lt;div style=&quot;box-sizing: border-box ; width: 100% ; background: #e4e4e4 ; padding: 2px&quot;&gt;Servizio&lt;/div&gt;&lt;table style=&quot;width: 100% ; font-size: 1em&quot; cellpadding=&quot;2&quot; cellspacing=&quot;0&quot;&gt;&lt;tbody&gt;&lt;tr&gt;&lt;td&gt;PK&lt;/td&gt;&lt;td&gt;Id_servizio&lt;br&gt;&lt;/td&gt;&lt;/tr&gt;&lt;tr&gt;&lt;td&gt;&lt;br&gt;&lt;/td&gt;&lt;td&gt;nome_servizio&lt;br&gt;descrizione_servizio&lt;br&gt;immagine&lt;br&gt;prezzo&lt;br&gt;disponibilità&lt;br&gt;&lt;br&gt;&lt;/td&gt;&lt;/tr&gt;&lt;tr&gt;&lt;td&gt;&amp;nbsp;&lt;/td&gt;&lt;td&gt;&lt;br&gt;&lt;br&gt;&lt;/td&gt;&lt;/tr&gt;&lt;/tbody&gt;&lt;/table&gt;" style="verticalAlign=top;align=left;overflow=fill;html=1;fillColor=#d5e8d4;strokeColor=#82b366;" vertex="1" parent="1">
          <mxGeometry x="1832" y="612" width="180" height="160" as="geometry" />
        </mxCell>
        <mxCell id="aYpBokMkxp7m7ungWqd7-8" value="&lt;div style=&quot;box-sizing: border-box ; width: 100% ; background: #e4e4e4 ; padding: 2px&quot;&gt;Promozione&lt;/div&gt;&lt;table style=&quot;width: 100% ; font-size: 1em&quot; cellpadding=&quot;2&quot; cellspacing=&quot;0&quot;&gt;&lt;tbody&gt;&lt;tr&gt;&lt;td&gt;PK&lt;/td&gt;&lt;td&gt;Id_promozione&lt;br&gt;&lt;/td&gt;&lt;/tr&gt;&lt;tr&gt;&lt;td&gt;&lt;br&gt;&lt;br&gt;&lt;br&gt;&lt;br&gt;&lt;/td&gt;&lt;td&gt;nome_promozione&lt;br&gt;data_promozione&lt;br&gt;percentuale_promozione&lt;br&gt;&lt;br&gt;&lt;br&gt;&lt;/td&gt;&lt;/tr&gt;&lt;tr&gt;&lt;td&gt;&amp;nbsp;&lt;/td&gt;&lt;td&gt;&lt;br&gt;&lt;/td&gt;&lt;/tr&gt;&lt;/tbody&gt;&lt;/table&gt;" style="verticalAlign=top;align=left;overflow=fill;html=1;fillColor=#d5e8d4;strokeColor=#82b366;" vertex="1" parent="1">
          <mxGeometry x="2472" y="1052" width="180" height="160" as="geometry" />
        </mxCell>
        <mxCell id="aYpBokMkxp7m7ungWqd7-9" style="edgeStyle=orthogonalEdgeStyle;rounded=0;orthogonalLoop=1;jettySize=auto;html=1;entryX=1;entryY=0.5;entryDx=0;entryDy=0;startArrow=oval;startFill=0;endArrow=none;endFill=0;fillColor=#d5e8d4;strokeColor=#82b366;" edge="1" parent="1" source="aYpBokMkxp7m7ungWqd7-11" target="aYpBokMkxp7m7ungWqd7-6">
          <mxGeometry relative="1" as="geometry" />
        </mxCell>
        <mxCell id="aYpBokMkxp7m7ungWqd7-10" style="edgeStyle=orthogonalEdgeStyle;rounded=0;orthogonalLoop=1;jettySize=auto;html=1;entryX=0;entryY=0.5;entryDx=0;entryDy=0;startArrow=ERzeroToMany;startFill=1;endArrow=none;endFill=0;fillColor=#d5e8d4;strokeColor=#82b366;" edge="1" parent="1" source="aYpBokMkxp7m7ungWqd7-11" target="aYpBokMkxp7m7ungWqd7-2">
          <mxGeometry relative="1" as="geometry" />
        </mxCell>
        <mxCell id="aYpBokMkxp7m7ungWqd7-11" value="&lt;div style=&quot;box-sizing: border-box ; width: 100% ; background: #e4e4e4 ; padding: 2px&quot;&gt;Risposta&lt;/div&gt;&lt;table style=&quot;width: 100% ; font-size: 1em&quot; cellpadding=&quot;2&quot; cellspacing=&quot;0&quot;&gt;&lt;tbody&gt;&lt;tr&gt;&lt;td&gt;PK&lt;/td&gt;&lt;td&gt;Id_risposta&lt;br&gt;&lt;/td&gt;&lt;/tr&gt;&lt;tr&gt;&lt;td&gt;&lt;br&gt;&lt;br&gt;&lt;/td&gt;&lt;td&gt;risposta&lt;br&gt;data_risposta&lt;br&gt;&lt;br&gt;&lt;/td&gt;&lt;/tr&gt;&lt;tr&gt;&lt;td&gt;&amp;nbsp;&lt;/td&gt;&lt;td&gt;&lt;br&gt;&lt;/td&gt;&lt;/tr&gt;&lt;/tbody&gt;&lt;/table&gt;" style="verticalAlign=top;align=left;overflow=fill;html=1;fillColor=#d5e8d4;strokeColor=#82b366;" vertex="1" parent="1">
          <mxGeometry x="1196" y="512" width="180" height="160" as="geometry" />
        </mxCell>
        <mxCell id="aYpBokMkxp7m7ungWqd7-12" style="edgeStyle=orthogonalEdgeStyle;rounded=0;orthogonalLoop=1;jettySize=auto;html=1;entryX=0;entryY=0.5;entryDx=0;entryDy=0;startArrow=ERzeroToMany;startFill=1;endArrow=oval;endFill=0;fillColor=#d5e8d4;strokeColor=#82b366;" edge="1" parent="1" source="aYpBokMkxp7m7ungWqd7-15" target="aYpBokMkxp7m7ungWqd7-8">
          <mxGeometry relative="1" as="geometry" />
        </mxCell>
        <mxCell id="aYpBokMkxp7m7ungWqd7-13" style="edgeStyle=orthogonalEdgeStyle;rounded=0;orthogonalLoop=1;jettySize=auto;html=1;entryX=0.5;entryY=0;entryDx=0;entryDy=0;startArrow=none;startFill=0;endArrow=none;endFill=0;fillColor=#d5e8d4;strokeColor=#82b366;" edge="1" parent="1" source="aYpBokMkxp7m7ungWqd7-15" target="aYpBokMkxp7m7ungWqd7-17">
          <mxGeometry relative="1" as="geometry" />
        </mxCell>
        <mxCell id="aYpBokMkxp7m7ungWqd7-14" style="edgeStyle=orthogonalEdgeStyle;rounded=0;orthogonalLoop=1;jettySize=auto;html=1;entryX=0.433;entryY=0.994;entryDx=0;entryDy=0;entryPerimeter=0;startArrow=ERzeroToMany;startFill=1;endArrow=ERmany;endFill=0;fillColor=#d5e8d4;strokeColor=#82b366;" edge="1" parent="1" source="aYpBokMkxp7m7ungWqd7-15" target="aYpBokMkxp7m7ungWqd7-7">
          <mxGeometry relative="1" as="geometry" />
        </mxCell>
        <mxCell id="aYpBokMkxp7m7ungWqd7-15" value="&lt;div style=&quot;box-sizing: border-box ; width: 100% ; background: #e4e4e4 ; padding: 2px&quot;&gt;Ordine&lt;/div&gt;&lt;table style=&quot;width: 100% ; font-size: 1em&quot; cellpadding=&quot;2&quot; cellspacing=&quot;0&quot;&gt;&lt;tbody&gt;&lt;tr&gt;&lt;td&gt;PK&lt;/td&gt;&lt;td&gt;Id_ordine&lt;br&gt;&lt;/td&gt;&lt;/tr&gt;&lt;tr&gt;&lt;td&gt;&lt;br&gt;&lt;/td&gt;&lt;td&gt;quantità&lt;br&gt;data&lt;/td&gt;&lt;/tr&gt;&lt;tr&gt;&lt;td&gt;&amp;nbsp;&lt;/td&gt;&lt;td&gt;&lt;br&gt;&lt;/td&gt;&lt;/tr&gt;&lt;/tbody&gt;&lt;/table&gt;" style="verticalAlign=top;align=left;overflow=fill;html=1;fillColor=#d5e8d4;strokeColor=#82b366;" vertex="1" parent="1">
          <mxGeometry x="1842" y="1052" width="180" height="160" as="geometry" />
        </mxCell>
        <mxCell id="aYpBokMkxp7m7ungWqd7-16" style="edgeStyle=orthogonalEdgeStyle;rounded=0;orthogonalLoop=1;jettySize=auto;html=1;entryX=0;entryY=0.5;entryDx=0;entryDy=0;startArrow=ERzeroToMany;startFill=1;endArrow=none;endFill=0;fillColor=#d5e8d4;strokeColor=#82b366;" edge="1" parent="1" source="aYpBokMkxp7m7ungWqd7-17" target="aYpBokMkxp7m7ungWqd7-18">
          <mxGeometry relative="1" as="geometry" />
        </mxCell>
        <mxCell id="aYpBokMkxp7m7ungWqd7-17" value="&lt;div style=&quot;box-sizing: border-box ; width: 100% ; background: #e4e4e4 ; padding: 2px&quot;&gt;Pagamento&lt;/div&gt;&lt;table style=&quot;width: 100% ; font-size: 1em&quot; cellpadding=&quot;2&quot; cellspacing=&quot;0&quot;&gt;&lt;tbody&gt;&lt;tr&gt;&lt;td&gt;PK&lt;/td&gt;&lt;td&gt;Id_pagamento&lt;br&gt;&lt;/td&gt;&lt;/tr&gt;&lt;tr&gt;&lt;td&gt;&lt;br&gt;&lt;br&gt;&lt;/td&gt;&lt;td&gt;data_pagamento&lt;br&gt;importo&lt;br&gt;&lt;br&gt;&lt;br&gt;&lt;br&gt;&lt;/td&gt;&lt;/tr&gt;&lt;tr&gt;&lt;td&gt;&amp;nbsp;&lt;/td&gt;&lt;td&gt;&lt;br&gt;&lt;/td&gt;&lt;/tr&gt;&lt;/tbody&gt;&lt;/table&gt;" style="verticalAlign=top;align=left;overflow=fill;html=1;fillColor=#d5e8d4;strokeColor=#82b366;" vertex="1" parent="1">
          <mxGeometry x="1932" y="1282" width="180" height="160" as="geometry" />
        </mxCell>
        <mxCell id="aYpBokMkxp7m7ungWqd7-18" value="&lt;div style=&quot;box-sizing: border-box ; width: 100% ; background: #e4e4e4 ; padding: 2px&quot;&gt;Modalità_Pagamento&lt;/div&gt;&lt;table style=&quot;width: 100% ; font-size: 1em&quot; cellpadding=&quot;2&quot; cellspacing=&quot;0&quot;&gt;&lt;tbody&gt;&lt;tr&gt;&lt;td&gt;PK&lt;/td&gt;&lt;td&gt;Id_modalità_pagamento&lt;br&gt;&lt;/td&gt;&lt;/tr&gt;&lt;tr&gt;&lt;td&gt;&lt;br&gt;&lt;/td&gt;&lt;td&gt;nome_modalità&lt;br&gt;&lt;br&gt;&lt;br&gt;&lt;br&gt;&lt;/td&gt;&lt;/tr&gt;&lt;tr&gt;&lt;td&gt;&amp;nbsp;&lt;/td&gt;&lt;td&gt;&lt;br&gt;&lt;/td&gt;&lt;/tr&gt;&lt;/tbody&gt;&lt;/table&gt;" style="verticalAlign=top;align=left;overflow=fill;html=1;fillColor=#d5e8d4;strokeColor=#82b366;" vertex="1" parent="1">
          <mxGeometry x="2292" y="1272" width="180" height="160" as="geometry" />
        </mxCell>
        <mxCell id="aYpBokMkxp7m7ungWqd7-19" value="E/R" style="text;html=1;fontSize=24;fontStyle=1;verticalAlign=middle;align=center;rounded=0;sketch=0;fillColor=#d5e8d4;strokeColor=#82b366;" vertex="1" parent="1">
          <mxGeometry x="1378" y="78" width="637" height="40" as="geometry" />
        </mxCell>
        <mxCell id="aYpBokMkxp7m7ungWqd7-20" style="edgeStyle=orthogonalEdgeStyle;rounded=0;orthogonalLoop=1;jettySize=auto;html=1;entryX=0;entryY=0.669;entryDx=0;entryDy=0;entryPerimeter=0;startArrow=none;startFill=0;endArrow=ERzeroToMany;endFill=1;fillColor=#d5e8d4;strokeColor=#82b366;" edge="1" parent="1" source="aYpBokMkxp7m7ungWqd7-21" target="aYpBokMkxp7m7ungWqd7-23">
          <mxGeometry relative="1" as="geometry">
            <Array as="points">
              <mxPoint x="756" y="1362" />
              <mxPoint x="1196" y="1362" />
              <mxPoint x="1196" y="1359" />
            </Array>
          </mxGeometry>
        </mxCell>
        <mxCell id="aYpBokMkxp7m7ungWqd7-21" value="&lt;div style=&quot;box-sizing: border-box ; width: 100% ; background: #e4e4e4 ; padding: 2px&quot;&gt;Indirizzo&lt;/div&gt;&lt;table style=&quot;width: 100% ; font-size: 1em&quot; cellpadding=&quot;2&quot; cellspacing=&quot;0&quot;&gt;&lt;tbody&gt;&lt;tr&gt;&lt;td&gt;PK&lt;/td&gt;&lt;td&gt;Id_indirizzo&lt;br&gt;&lt;/td&gt;&lt;/tr&gt;&lt;tr&gt;&lt;td&gt;&lt;br&gt;&lt;br&gt;&lt;br&gt;&lt;br&gt;&lt;/td&gt;&lt;td&gt;indirizzo&lt;br&gt;info_aggiuntive&lt;br&gt;cap&lt;br&gt;città&lt;br&gt;&lt;br&gt;&lt;br&gt;&lt;br&gt;&lt;br&gt;&lt;/td&gt;&lt;/tr&gt;&lt;tr&gt;&lt;td&gt;&amp;nbsp;&lt;/td&gt;&lt;td&gt;&lt;br&gt;&lt;/td&gt;&lt;/tr&gt;&lt;/tbody&gt;&lt;/table&gt;" style="verticalAlign=top;align=left;overflow=fill;html=1;fillColor=#d5e8d4;strokeColor=#82b366;" vertex="1" parent="1">
          <mxGeometry x="676" y="1142" width="180" height="160" as="geometry" />
        </mxCell>
        <mxCell id="aYpBokMkxp7m7ungWqd7-22" style="edgeStyle=orthogonalEdgeStyle;rounded=0;orthogonalLoop=1;jettySize=auto;html=1;entryX=0;entryY=0.5;entryDx=0;entryDy=0;startArrow=oval;startFill=0;endArrow=none;endFill=0;fillColor=#d5e8d4;strokeColor=#82b366;" edge="1" parent="1" source="aYpBokMkxp7m7ungWqd7-23" target="aYpBokMkxp7m7ungWqd7-15">
          <mxGeometry relative="1" as="geometry" />
        </mxCell>
        <mxCell id="aYpBokMkxp7m7ungWqd7-23" value="&lt;div style=&quot;box-sizing: border-box ; width: 100% ; background: #e4e4e4 ; padding: 2px&quot;&gt;Spedizione&lt;/div&gt;&lt;table style=&quot;width: 100% ; font-size: 1em&quot; cellpadding=&quot;2&quot; cellspacing=&quot;0&quot;&gt;&lt;tbody&gt;&lt;tr&gt;&lt;td&gt;PK&lt;/td&gt;&lt;td&gt;Id_spedizione&lt;br&gt;&lt;/td&gt;&lt;/tr&gt;&lt;tr&gt;&lt;td&gt;&lt;br&gt;&lt;br&gt;&lt;/td&gt;&lt;td&gt;data&lt;br&gt;&lt;br&gt;&lt;br&gt;&lt;br&gt;&lt;/td&gt;&lt;/tr&gt;&lt;tr&gt;&lt;td&gt;&amp;nbsp;&lt;/td&gt;&lt;td&gt;&lt;br&gt;&lt;/td&gt;&lt;/tr&gt;&lt;/tbody&gt;&lt;/table&gt;" style="verticalAlign=top;align=left;overflow=fill;html=1;fillColor=#d5e8d4;strokeColor=#82b366;" vertex="1" parent="1">
          <mxGeometry x="1546" y="1252" width="180" height="160" as="geometry" />
        </mxCell>
        <mxCell id="aYpBokMkxp7m7ungWqd7-24" value="&lt;font style=&quot;font-size: 15px&quot;&gt;HA&lt;/font&gt;" style="text;html=1;align=center;verticalAlign=middle;whiteSpace=wrap;rounded=0;fillColor=#d5e8d4;strokeColor=#82b366;" vertex="1" parent="1">
          <mxGeometry x="2186" y="1322" width="40" height="20" as="geometry" />
        </mxCell>
        <mxCell id="aYpBokMkxp7m7ungWqd7-25" value="&lt;span style=&quot;font-size: 15px&quot;&gt;FORNISCE&lt;/span&gt;" style="text;html=1;align=center;verticalAlign=middle;whiteSpace=wrap;rounded=0;fillColor=#d5e8d4;strokeColor=#82b366;" vertex="1" parent="1">
          <mxGeometry x="926" y="1172" width="90" height="20" as="geometry" />
        </mxCell>
        <mxCell id="aYpBokMkxp7m7ungWqd7-26" value="&lt;span style=&quot;font-size: 15px&quot;&gt;PONE&lt;/span&gt;" style="text;html=1;align=center;verticalAlign=middle;whiteSpace=wrap;rounded=0;fillColor=#d5e8d4;strokeColor=#82b366;" vertex="1" parent="1">
          <mxGeometry x="966" y="992" width="65" height="25" as="geometry" />
        </mxCell>
        <mxCell id="aYpBokMkxp7m7ungWqd7-28" value="&lt;span style=&quot;font-size: 15px&quot;&gt;DA&#39;&lt;/span&gt;" style="text;html=1;align=center;verticalAlign=middle;whiteSpace=wrap;rounded=0;fillColor=#d5e8d4;strokeColor=#82b366;" vertex="1" parent="1">
          <mxGeometry x="1326" y="692" width="120" height="20" as="geometry" />
        </mxCell>
        <mxCell id="aYpBokMkxp7m7ungWqd7-29" value="&lt;span style=&quot;font-size: 15px&quot;&gt;OFFRE&lt;/span&gt;" style="text;html=1;align=center;verticalAlign=middle;whiteSpace=wrap;rounded=0;fillColor=#d5e8d4;strokeColor=#82b366;" vertex="1" parent="1">
          <mxGeometry x="1726" y="722" width="80" height="20" as="geometry" />
        </mxCell>
        <mxCell id="aYpBokMkxp7m7ungWqd7-30" value="&lt;span style=&quot;font-size: 15px&quot;&gt;SI RIFERISCE&lt;/span&gt;" style="text;html=1;align=center;verticalAlign=middle;whiteSpace=wrap;rounded=0;fillColor=#d5e8d4;strokeColor=#82b366;" vertex="1" parent="1">
          <mxGeometry x="1932" y="852" width="100" height="50" as="geometry" />
        </mxCell>
        <mxCell id="aYpBokMkxp7m7ungWqd7-31" value="&lt;span style=&quot;font-size: 15px&quot;&gt;COMPRENDE&lt;br&gt;&lt;/span&gt;" style="text;html=1;align=center;verticalAlign=middle;whiteSpace=wrap;rounded=0;fillColor=#d5e8d4;strokeColor=#82b366;" vertex="1" parent="1">
          <mxGeometry x="1676" y="1182" width="100" height="40" as="geometry" />
        </mxCell>
        <mxCell id="aYpBokMkxp7m7ungWqd7-32" value="&lt;span style=&quot;font-size: 15px&quot;&gt;E&#39; APPLICATA&lt;br&gt;&lt;/span&gt;" style="text;html=1;align=center;verticalAlign=middle;whiteSpace=wrap;rounded=0;fillColor=#d5e8d4;strokeColor=#82b366;" vertex="1" parent="1">
          <mxGeometry x="2236" y="1082" width="110" height="40" as="geometry" />
        </mxCell>
        <mxCell id="aYpBokMkxp7m7ungWqd7-33" value="E&#39; EFFETTUATO" style="text;html=1;align=center;verticalAlign=middle;whiteSpace=wrap;rounded=0;fillColor=#d5e8d4;strokeColor=#82b366;" vertex="1" parent="1">
          <mxGeometry x="2056" y="1222" width="110" height="20" as="geometry" />
        </mxCell>
        <mxCell id="aYpBokMkxp7m7ungWqd7-34" value="&lt;span style=&quot;font-size: 15px&quot;&gt;E&#39; LEGATO&lt;/span&gt;" style="text;html=1;align=center;verticalAlign=middle;whiteSpace=wrap;rounded=0;fillColor=#d5e8d4;strokeColor=#82b366;" vertex="1" parent="1">
          <mxGeometry x="1316" y="1332" width="90" height="20" as="geometry" />
        </mxCell>
        <mxCell id="aYpBokMkxp7m7ungWqd7-36" value="&lt;span style=&quot;font-size: 15px&quot;&gt;EFFETTUA&lt;/span&gt;" style="text;html=1;align=center;verticalAlign=middle;whiteSpace=wrap;rounded=0;fillColor=#d5e8d4;strokeColor=#82b366;" vertex="1" parent="1">
          <mxGeometry x="1446" y="1042" width="80" height="35" as="geometry" />
        </mxCell>
        <mxCell id="aYpBokMkxp7m7ungWqd7-44" value="&lt;span style=&quot;font-size: 15px&quot;&gt;RIGUARDA&lt;/span&gt;" style="text;html=1;align=center;verticalAlign=middle;whiteSpace=wrap;rounded=0;fillColor=#d5e8d4;strokeColor=#82b366;" vertex="1" parent="1">
          <mxGeometry x="1076" y="622" width="90" height="20" as="geometry" />
        </mxCell>
        <mxCell id="aYpBokMkxp7m7ungWqd7-55" value="&lt;div style=&quot;box-sizing: border-box ; width: 100% ; background: #e4e4e4 ; padding: 2px&quot;&gt;Fornitore&lt;/div&gt;&lt;table style=&quot;width: 100% ; font-size: 1em&quot; cellpadding=&quot;2&quot; cellspacing=&quot;0&quot;&gt;&lt;tbody&gt;&lt;tr&gt;&lt;td&gt;PK&lt;/td&gt;&lt;td&gt;Id_fornitore&lt;br&gt;&lt;/td&gt;&lt;/tr&gt;&lt;tr&gt;&lt;td&gt;&lt;br&gt;&lt;br&gt;&lt;br&gt;&lt;br&gt;&lt;br&gt;&lt;br&gt;&lt;br&gt;&lt;br&gt;&lt;br&gt;&lt;br&gt;&lt;br&gt;&lt;/td&gt;&lt;td&gt;nome_azienda&lt;br&gt;iban&lt;br&gt;settore&lt;br&gt;partita_iva&lt;br&gt;descrizione_attività&lt;br&gt;stato&lt;br&gt;provincia&lt;br&gt;città&lt;br&gt;indirizzo&lt;br&gt;cap&lt;br&gt;telefono&lt;br&gt;fax&lt;br&gt;indirizzo_email&lt;br&gt;password&lt;br&gt;&lt;br&gt;&lt;br&gt;&lt;br&gt;&lt;br&gt;&lt;/td&gt;&lt;/tr&gt;&lt;tr&gt;&lt;td&gt;&amp;nbsp;&lt;/td&gt;&lt;td&gt;&lt;br&gt;&lt;/td&gt;&lt;/tr&gt;&lt;/tbody&gt;&lt;/table&gt;" style="verticalAlign=top;align=left;overflow=fill;html=1;fillColor=#d5e8d4;strokeColor=#82b366;" vertex="1" parent="1">
          <mxGeometry x="1766" y="312" width="210" height="260" as="geometry" />
        </mxCell>
        <mxCell id="aYpBokMkxp7m7ungWqd7-57" value="&lt;span style=&quot;font-size: 15px&quot;&gt;E&#39; FORNITORE&lt;/span&gt;" style="text;html=1;align=center;verticalAlign=middle;whiteSpace=wrap;rounded=0;fillColor=#d5e8d4;strokeColor=#82b366;" vertex="1" parent="1">
          <mxGeometry x="1616" y="332" width="90" height="50" as="geometry" />
        </mxCell>
        <mxCell id="aYpBokMkxp7m7ungWqd7-59" value="&lt;span style=&quot;font-size: 15px&quot;&gt;PREFERISCE&lt;/span&gt;" style="text;html=1;align=center;verticalAlign=middle;whiteSpace=wrap;rounded=0;fillColor=#d5e8d4;strokeColor=#82b366;" vertex="1" parent="1">
          <mxGeometry x="1276" y="902" width="120" height="20" as="geometry" />
        </mxCell>
      </root>
    </mxGraphModel>
  </diagram>
</mxfile>
